G04 EAGLE Gerber RS-274X export*
G75*
%MOMM*%
%FSLAX34Y34*%
%LPD*%
%INTop Copper*%
%IPPOS*%
%AMOC8*
5,1,8,0,0,1.08239X$1,22.5*%
G01*
%ADD10R,1.524000X1.524000*%
%ADD11P,1.649562X8X22.500000*%
%ADD12C,1.778000*%
%ADD13R,0.904800X0.904800*%
%ADD14C,1.400000*%
%ADD15C,1.960000*%
%ADD16R,1.651000X1.651000*%
%ADD17C,1.651000*%
%ADD18R,0.609600X0.508000*%
%ADD19C,0.254000*%
%ADD20C,0.609600*%


D10*
X71800Y365500D03*
D11*
X71800Y390900D03*
X97200Y365500D03*
X97200Y390900D03*
X122600Y365500D03*
X122600Y390900D03*
X148000Y365500D03*
X148000Y390900D03*
X173400Y365500D03*
X173400Y390900D03*
X198800Y365500D03*
X198800Y390900D03*
X224200Y365500D03*
X224200Y390900D03*
X249600Y365500D03*
X249600Y390900D03*
X275000Y365500D03*
X275000Y390900D03*
X300400Y365500D03*
X300400Y390900D03*
X325800Y365500D03*
X325800Y390900D03*
X351200Y365500D03*
X351200Y390900D03*
X376600Y365500D03*
X376600Y390900D03*
X402000Y365500D03*
X402000Y390900D03*
X427400Y365500D03*
X427400Y390900D03*
X452800Y365500D03*
X452800Y390900D03*
X478200Y365500D03*
X478200Y390900D03*
X503600Y365500D03*
X503600Y390900D03*
D10*
X71800Y619500D03*
D11*
X71800Y644900D03*
X97200Y619500D03*
X97200Y644900D03*
X122600Y619500D03*
X122600Y644900D03*
X148000Y619500D03*
X148000Y644900D03*
X173400Y619500D03*
X173400Y644900D03*
X198800Y619500D03*
X198800Y644900D03*
X224200Y619500D03*
X224200Y644900D03*
X249600Y619500D03*
X249600Y644900D03*
X275000Y619500D03*
X275000Y644900D03*
X300400Y619500D03*
X300400Y644900D03*
X325800Y619500D03*
X325800Y644900D03*
X351200Y619500D03*
X351200Y644900D03*
X376600Y619500D03*
X376600Y644900D03*
X402000Y619500D03*
X402000Y644900D03*
X427400Y619500D03*
X427400Y644900D03*
X452800Y619500D03*
X452800Y644900D03*
X478200Y619500D03*
X478200Y644900D03*
X503600Y619500D03*
X503600Y644900D03*
D12*
X231140Y279400D03*
X256540Y279400D03*
X281940Y279400D03*
X307340Y279400D03*
D13*
X614600Y436800D03*
X664600Y436800D03*
D14*
X724300Y114300D03*
X749300Y114300D03*
X774300Y114300D03*
D15*
X659400Y113900D03*
X659400Y63900D03*
X534400Y63900D03*
X534400Y113900D03*
D16*
X596900Y622300D03*
D17*
X596900Y596900D03*
X596900Y571500D03*
D18*
X604012Y330200D03*
X615188Y330200D03*
X134112Y317500D03*
X145288Y317500D03*
X184912Y317500D03*
X196088Y317500D03*
D15*
X659400Y279000D03*
X659400Y229000D03*
X534400Y229000D03*
X534400Y279000D03*
D18*
X629412Y330200D03*
X640588Y330200D03*
D19*
X596900Y596900D02*
X558800Y596900D01*
X353060Y391160D01*
X351200Y390900D01*
X307340Y330200D02*
X307340Y279400D01*
X307340Y330200D02*
X337820Y360680D01*
X337820Y375920D01*
X350520Y388620D01*
X351200Y390900D01*
X617220Y330200D02*
X624840Y337820D01*
X635000Y337820D01*
X642620Y330200D01*
X617220Y330200D02*
X615188Y330200D01*
X642620Y330200D02*
X723900Y248920D01*
X642620Y330200D02*
X640588Y330200D01*
X233680Y617220D02*
X226060Y617220D01*
X233680Y617220D02*
X243840Y607060D01*
X276860Y607060D02*
X340360Y607060D01*
X276860Y607060D02*
X243840Y607060D01*
X340360Y607060D02*
X350520Y617220D01*
X226060Y617220D02*
X224200Y619500D01*
X350520Y617220D02*
X351200Y619500D01*
X172720Y317500D02*
X145288Y317500D01*
X172720Y317500D02*
X180340Y309880D01*
X190500Y309880D01*
X198120Y317500D01*
X213360Y317500D01*
X243840Y287020D01*
X243840Y271780D01*
X248920Y266700D01*
X264160Y266700D01*
X269240Y271780D01*
X269240Y353060D01*
X261620Y360680D01*
X261620Y375920D01*
X274320Y388620D01*
X198120Y317500D02*
X196088Y317500D01*
X274320Y388620D02*
X275000Y390900D01*
X276860Y391160D02*
X276860Y607060D01*
X276860Y391160D02*
X275000Y390900D01*
D20*
X723900Y248920D03*
D19*
X604520Y304800D02*
X604520Y330200D01*
X604520Y304800D02*
X762000Y147320D01*
X762000Y109220D01*
X754380Y101600D01*
X670560Y101600D01*
X660400Y111760D01*
X659400Y113900D01*
X309880Y642620D02*
X302260Y642620D01*
X309880Y642620D02*
X320040Y632460D01*
X563880Y632460D01*
X586740Y609600D01*
X601980Y609600D01*
X609600Y601980D01*
X609600Y447040D01*
X604520Y441960D01*
X604520Y330200D01*
X302260Y642620D02*
X300400Y644900D01*
X604012Y330200D02*
X604520Y330200D01*
X657860Y114300D02*
X535940Y114300D01*
X534400Y113900D01*
X657860Y114300D02*
X659400Y113900D01*
X134620Y314960D02*
X134620Y317500D01*
X134620Y314960D02*
X170180Y279400D01*
X231140Y279400D01*
X172720Y431800D02*
X172720Y617220D01*
X172720Y431800D02*
X134620Y393700D01*
X134620Y317500D01*
X172720Y617220D02*
X173400Y619500D01*
X185420Y320040D02*
X185420Y317500D01*
X185420Y320040D02*
X190500Y325120D01*
X210820Y325120D02*
X213360Y325120D01*
X210820Y325120D02*
X190500Y325120D01*
X213360Y325120D02*
X256540Y281940D01*
X256540Y279400D01*
X185420Y317500D02*
X184912Y317500D01*
X200660Y406400D02*
X200660Y617220D01*
X200660Y406400D02*
X210820Y396240D01*
X210820Y325120D01*
X200660Y617220D02*
X198800Y619500D01*
X741680Y114300D02*
X749300Y114300D01*
X741680Y114300D02*
X502920Y353060D01*
X363220Y353060D01*
X353060Y363220D01*
X351200Y365500D01*
X629920Y330200D02*
X629920Y307340D01*
X657860Y279400D01*
X629920Y330200D02*
X629412Y330200D01*
X657860Y279400D02*
X659400Y279000D01*
M02*
