G04 EAGLE Gerber RS-274X export*
G75*
%MOMM*%
%FSLAX34Y34*%
%LPD*%
%INCopper Layer 15*%
%IPPOS*%
%AMOC8*
5,1,8,0,0,1.08239X$1,22.5*%
G01*
%ADD10C,1.244600*%
%ADD11C,1.422400*%
%ADD12C,0.904800*%
%ADD13C,1.400000*%
%ADD14C,1.960000*%
%ADD15C,0.609600*%

G36*
X821608Y2556D02*
X821608Y2556D01*
X821727Y2563D01*
X821765Y2576D01*
X821806Y2581D01*
X821916Y2624D01*
X822029Y2661D01*
X822064Y2683D01*
X822101Y2698D01*
X822197Y2767D01*
X822298Y2831D01*
X822326Y2861D01*
X822359Y2884D01*
X822435Y2976D01*
X822516Y3063D01*
X822536Y3098D01*
X822561Y3129D01*
X822612Y3237D01*
X822670Y3341D01*
X822680Y3381D01*
X822697Y3417D01*
X822719Y3534D01*
X822749Y3649D01*
X822753Y3709D01*
X822757Y3729D01*
X822755Y3750D01*
X822759Y3810D01*
X822759Y704090D01*
X822744Y704208D01*
X822737Y704327D01*
X822724Y704365D01*
X822719Y704406D01*
X822676Y704516D01*
X822639Y704629D01*
X822617Y704664D01*
X822602Y704701D01*
X822533Y704797D01*
X822469Y704898D01*
X822439Y704926D01*
X822416Y704959D01*
X822324Y705035D01*
X822237Y705116D01*
X822202Y705136D01*
X822171Y705161D01*
X822063Y705212D01*
X821959Y705270D01*
X821919Y705280D01*
X821883Y705297D01*
X821766Y705319D01*
X821651Y705349D01*
X821591Y705353D01*
X821571Y705357D01*
X821550Y705355D01*
X821490Y705359D01*
X3810Y705359D01*
X3692Y705344D01*
X3573Y705337D01*
X3535Y705324D01*
X3494Y705319D01*
X3384Y705276D01*
X3271Y705239D01*
X3236Y705217D01*
X3199Y705202D01*
X3103Y705133D01*
X3002Y705069D01*
X2974Y705039D01*
X2941Y705016D01*
X2865Y704924D01*
X2784Y704837D01*
X2764Y704802D01*
X2739Y704771D01*
X2688Y704663D01*
X2630Y704559D01*
X2620Y704519D01*
X2603Y704483D01*
X2581Y704366D01*
X2551Y704251D01*
X2547Y704191D01*
X2543Y704171D01*
X2545Y704150D01*
X2541Y704090D01*
X2541Y3810D01*
X2556Y3692D01*
X2563Y3573D01*
X2576Y3535D01*
X2581Y3494D01*
X2624Y3384D01*
X2661Y3271D01*
X2683Y3236D01*
X2698Y3199D01*
X2767Y3103D01*
X2831Y3002D01*
X2861Y2974D01*
X2884Y2941D01*
X2976Y2865D01*
X3063Y2784D01*
X3098Y2764D01*
X3129Y2739D01*
X3237Y2688D01*
X3341Y2630D01*
X3381Y2620D01*
X3417Y2603D01*
X3534Y2581D01*
X3649Y2551D01*
X3709Y2547D01*
X3729Y2543D01*
X3750Y2545D01*
X3810Y2541D01*
X821490Y2541D01*
X821608Y2556D01*
G37*
%LPC*%
G36*
X796308Y169259D02*
X796308Y169259D01*
X790780Y171549D01*
X786549Y175780D01*
X784259Y181308D01*
X784259Y187292D01*
X786549Y192820D01*
X790780Y197051D01*
X796308Y199341D01*
X802292Y199341D01*
X807820Y197051D01*
X812051Y192820D01*
X814341Y187292D01*
X814341Y181308D01*
X812051Y175780D01*
X807820Y171549D01*
X802292Y169259D01*
X796308Y169259D01*
G37*
%LPD*%
%LPC*%
G36*
X696308Y169259D02*
X696308Y169259D01*
X690780Y171549D01*
X686549Y175780D01*
X684259Y181308D01*
X684259Y187292D01*
X686549Y192820D01*
X690780Y197051D01*
X696308Y199341D01*
X702292Y199341D01*
X707820Y197051D01*
X712051Y192820D01*
X714341Y187292D01*
X714341Y181308D01*
X712051Y175780D01*
X707820Y171549D01*
X702292Y169259D01*
X696308Y169259D01*
G37*
%LPD*%
%LPC*%
G36*
X45765Y38259D02*
X45765Y38259D01*
X41156Y40168D01*
X37628Y43696D01*
X35719Y48305D01*
X35719Y53295D01*
X37628Y57904D01*
X41156Y61432D01*
X45765Y63341D01*
X50755Y63341D01*
X55364Y61432D01*
X58892Y57904D01*
X60801Y53295D01*
X60801Y48305D01*
X58892Y43696D01*
X55364Y40168D01*
X50755Y38259D01*
X45765Y38259D01*
G37*
%LPD*%
%LPC*%
G36*
X45765Y266859D02*
X45765Y266859D01*
X41156Y268768D01*
X37628Y272296D01*
X35719Y276905D01*
X35719Y281895D01*
X37628Y286504D01*
X41156Y290032D01*
X45765Y291941D01*
X50755Y291941D01*
X55364Y290032D01*
X58892Y286504D01*
X60801Y281895D01*
X60801Y276905D01*
X58892Y272296D01*
X55364Y268768D01*
X50755Y266859D01*
X45765Y266859D01*
G37*
%LPD*%
%LPC*%
G36*
X482645Y266859D02*
X482645Y266859D01*
X478036Y268768D01*
X474508Y272296D01*
X472599Y276905D01*
X472599Y281895D01*
X474508Y286504D01*
X478036Y290032D01*
X482645Y291941D01*
X487635Y291941D01*
X492244Y290032D01*
X495772Y286504D01*
X497681Y281895D01*
X497681Y276905D01*
X495772Y272296D01*
X492244Y268768D01*
X487635Y266859D01*
X482645Y266859D01*
G37*
%LPD*%
%LPC*%
G36*
X482645Y38259D02*
X482645Y38259D01*
X478036Y40168D01*
X474508Y43696D01*
X472599Y48305D01*
X472599Y53295D01*
X474508Y57904D01*
X478036Y61432D01*
X482645Y63341D01*
X487635Y63341D01*
X492244Y61432D01*
X495772Y57904D01*
X497681Y53295D01*
X497681Y48305D01*
X495772Y43696D01*
X492244Y40168D01*
X487635Y38259D01*
X482645Y38259D01*
G37*
%LPD*%
%LPC*%
G36*
X531945Y266659D02*
X531945Y266659D01*
X527410Y268538D01*
X523938Y272010D01*
X522059Y276545D01*
X522059Y281455D01*
X523938Y285990D01*
X527410Y289462D01*
X531945Y291341D01*
X536855Y291341D01*
X541390Y289462D01*
X544862Y285990D01*
X546741Y281455D01*
X546741Y276545D01*
X544862Y272010D01*
X541390Y268538D01*
X536855Y266659D01*
X531945Y266659D01*
G37*
%LPD*%
%LPC*%
G36*
X656945Y266659D02*
X656945Y266659D01*
X652410Y268538D01*
X648938Y272010D01*
X647059Y276545D01*
X647059Y281455D01*
X648938Y285990D01*
X652410Y289462D01*
X656945Y291341D01*
X661855Y291341D01*
X666390Y289462D01*
X669862Y285990D01*
X671741Y281455D01*
X671741Y276545D01*
X669862Y272010D01*
X666390Y268538D01*
X661855Y266659D01*
X656945Y266659D01*
G37*
%LPD*%
%LPC*%
G36*
X656945Y216659D02*
X656945Y216659D01*
X652410Y218538D01*
X648938Y222010D01*
X647059Y226545D01*
X647059Y231455D01*
X648938Y235990D01*
X652410Y239462D01*
X656945Y241341D01*
X661855Y241341D01*
X666390Y239462D01*
X669862Y235990D01*
X671741Y231455D01*
X671741Y226545D01*
X669862Y222010D01*
X666390Y218538D01*
X661855Y216659D01*
X656945Y216659D01*
G37*
%LPD*%
%LPC*%
G36*
X531945Y216659D02*
X531945Y216659D01*
X527410Y218538D01*
X523938Y222010D01*
X522059Y226545D01*
X522059Y231455D01*
X523938Y235990D01*
X527410Y239462D01*
X531945Y241341D01*
X536855Y241341D01*
X541390Y239462D01*
X544862Y235990D01*
X546741Y231455D01*
X546741Y226545D01*
X544862Y222010D01*
X541390Y218538D01*
X536855Y216659D01*
X531945Y216659D01*
G37*
%LPD*%
%LPC*%
G36*
X656945Y101559D02*
X656945Y101559D01*
X652410Y103438D01*
X648938Y106910D01*
X647059Y111445D01*
X647059Y116355D01*
X648938Y120890D01*
X652410Y124362D01*
X656945Y126241D01*
X661855Y126241D01*
X666390Y124362D01*
X669862Y120890D01*
X671741Y116355D01*
X671741Y111445D01*
X669862Y106910D01*
X666390Y103438D01*
X661855Y101559D01*
X656945Y101559D01*
G37*
%LPD*%
%LPC*%
G36*
X531945Y101559D02*
X531945Y101559D01*
X527410Y103438D01*
X523938Y106910D01*
X522059Y111445D01*
X522059Y116355D01*
X523938Y120890D01*
X527410Y124362D01*
X531945Y126241D01*
X536855Y126241D01*
X541390Y124362D01*
X544862Y120890D01*
X546741Y116355D01*
X546741Y111445D01*
X544862Y106910D01*
X541390Y103438D01*
X536855Y101559D01*
X531945Y101559D01*
G37*
%LPD*%
%LPC*%
G36*
X656945Y51559D02*
X656945Y51559D01*
X652410Y53438D01*
X648938Y56910D01*
X647059Y61445D01*
X647059Y66355D01*
X648938Y70890D01*
X652410Y74362D01*
X656945Y76241D01*
X661855Y76241D01*
X666390Y74362D01*
X669862Y70890D01*
X671741Y66355D01*
X671741Y61445D01*
X669862Y56910D01*
X666390Y53438D01*
X661855Y51559D01*
X656945Y51559D01*
G37*
%LPD*%
%LPC*%
G36*
X531945Y51559D02*
X531945Y51559D01*
X527410Y53438D01*
X523938Y56910D01*
X522059Y61445D01*
X522059Y66355D01*
X523938Y70890D01*
X527410Y74362D01*
X531945Y76241D01*
X536855Y76241D01*
X541390Y74362D01*
X544862Y70890D01*
X546741Y66355D01*
X546741Y61445D01*
X544862Y56910D01*
X541390Y53438D01*
X536855Y51559D01*
X531945Y51559D01*
G37*
%LPD*%
%LPC*%
G36*
X305420Y269747D02*
X305420Y269747D01*
X301872Y271217D01*
X299157Y273932D01*
X297687Y277480D01*
X297687Y281320D01*
X299157Y284868D01*
X301872Y287583D01*
X305420Y289053D01*
X309260Y289053D01*
X312808Y287583D01*
X315523Y284868D01*
X316993Y281320D01*
X316993Y277480D01*
X315523Y273932D01*
X312808Y271217D01*
X309260Y269747D01*
X305420Y269747D01*
G37*
%LPD*%
%LPC*%
G36*
X229220Y269747D02*
X229220Y269747D01*
X225672Y271217D01*
X222957Y273932D01*
X221487Y277480D01*
X221487Y281320D01*
X222957Y284868D01*
X225672Y287583D01*
X229220Y289053D01*
X233060Y289053D01*
X236608Y287583D01*
X239323Y284868D01*
X240793Y281320D01*
X240793Y277480D01*
X239323Y273932D01*
X236608Y271217D01*
X233060Y269747D01*
X229220Y269747D01*
G37*
%LPD*%
%LPC*%
G36*
X254620Y269747D02*
X254620Y269747D01*
X251072Y271217D01*
X248357Y273932D01*
X246887Y277480D01*
X246887Y281320D01*
X248357Y284868D01*
X251072Y287583D01*
X254620Y289053D01*
X258460Y289053D01*
X262008Y287583D01*
X264723Y284868D01*
X266193Y281320D01*
X266193Y277480D01*
X264723Y273932D01*
X262008Y271217D01*
X258460Y269747D01*
X254620Y269747D01*
G37*
%LPD*%
%LPC*%
G36*
X280020Y269747D02*
X280020Y269747D01*
X276472Y271217D01*
X273757Y273932D01*
X272287Y277480D01*
X272287Y281320D01*
X273757Y284868D01*
X276472Y287583D01*
X280020Y289053D01*
X283860Y289053D01*
X287408Y287583D01*
X290123Y284868D01*
X291593Y281320D01*
X291593Y277480D01*
X290123Y273932D01*
X287408Y271217D01*
X283860Y269747D01*
X280020Y269747D01*
G37*
%LPD*%
%LPC*%
G36*
X772402Y104759D02*
X772402Y104759D01*
X768896Y106212D01*
X766212Y108896D01*
X764759Y112402D01*
X764759Y116198D01*
X766212Y119704D01*
X768896Y122388D01*
X772402Y123841D01*
X776198Y123841D01*
X779704Y122388D01*
X782388Y119704D01*
X783841Y116198D01*
X783841Y112402D01*
X782388Y108896D01*
X779704Y106212D01*
X776198Y104759D01*
X772402Y104759D01*
G37*
%LPD*%
%LPC*%
G36*
X747402Y104759D02*
X747402Y104759D01*
X743896Y106212D01*
X741212Y108896D01*
X739759Y112402D01*
X739759Y116198D01*
X741212Y119704D01*
X743896Y122388D01*
X747402Y123841D01*
X751198Y123841D01*
X754704Y122388D01*
X757388Y119704D01*
X758841Y116198D01*
X758841Y112402D01*
X757388Y108896D01*
X754704Y106212D01*
X751198Y104759D01*
X747402Y104759D01*
G37*
%LPD*%
%LPC*%
G36*
X247857Y636136D02*
X247857Y636136D01*
X244636Y637470D01*
X242170Y639936D01*
X240836Y643157D01*
X240836Y646643D01*
X242170Y649864D01*
X244636Y652330D01*
X247857Y653664D01*
X251343Y653664D01*
X254564Y652330D01*
X257030Y649864D01*
X258364Y646643D01*
X258364Y643157D01*
X257030Y639936D01*
X254564Y637470D01*
X251343Y636136D01*
X247857Y636136D01*
G37*
%LPD*%
%LPC*%
G36*
X222457Y636136D02*
X222457Y636136D01*
X219236Y637470D01*
X216770Y639936D01*
X215436Y643157D01*
X215436Y646643D01*
X216770Y649864D01*
X219236Y652330D01*
X222457Y653664D01*
X225943Y653664D01*
X229164Y652330D01*
X231630Y649864D01*
X232964Y646643D01*
X232964Y643157D01*
X231630Y639936D01*
X229164Y637470D01*
X225943Y636136D01*
X222457Y636136D01*
G37*
%LPD*%
%LPC*%
G36*
X171657Y636136D02*
X171657Y636136D01*
X168436Y637470D01*
X165970Y639936D01*
X164636Y643157D01*
X164636Y646643D01*
X165970Y649864D01*
X168436Y652330D01*
X171657Y653664D01*
X175143Y653664D01*
X178364Y652330D01*
X180830Y649864D01*
X182164Y646643D01*
X182164Y643157D01*
X180830Y639936D01*
X178364Y637470D01*
X175143Y636136D01*
X171657Y636136D01*
G37*
%LPD*%
%LPC*%
G36*
X146257Y636136D02*
X146257Y636136D01*
X143036Y637470D01*
X140570Y639936D01*
X139236Y643157D01*
X139236Y646643D01*
X140570Y649864D01*
X143036Y652330D01*
X146257Y653664D01*
X149743Y653664D01*
X152964Y652330D01*
X155430Y649864D01*
X156764Y646643D01*
X156764Y643157D01*
X155430Y639936D01*
X152964Y637470D01*
X149743Y636136D01*
X146257Y636136D01*
G37*
%LPD*%
%LPC*%
G36*
X120857Y636136D02*
X120857Y636136D01*
X117636Y637470D01*
X115170Y639936D01*
X113836Y643157D01*
X113836Y646643D01*
X115170Y649864D01*
X117636Y652330D01*
X120857Y653664D01*
X124343Y653664D01*
X127564Y652330D01*
X130030Y649864D01*
X131364Y646643D01*
X131364Y643157D01*
X130030Y639936D01*
X127564Y637470D01*
X124343Y636136D01*
X120857Y636136D01*
G37*
%LPD*%
%LPC*%
G36*
X95457Y636136D02*
X95457Y636136D01*
X92236Y637470D01*
X89770Y639936D01*
X88436Y643157D01*
X88436Y646643D01*
X89770Y649864D01*
X92236Y652330D01*
X95457Y653664D01*
X98943Y653664D01*
X102164Y652330D01*
X104630Y649864D01*
X105964Y646643D01*
X105964Y643157D01*
X104630Y639936D01*
X102164Y637470D01*
X98943Y636136D01*
X95457Y636136D01*
G37*
%LPD*%
%LPC*%
G36*
X70057Y636136D02*
X70057Y636136D01*
X66836Y637470D01*
X64370Y639936D01*
X63036Y643157D01*
X63036Y646643D01*
X64370Y649864D01*
X66836Y652330D01*
X70057Y653664D01*
X73543Y653664D01*
X76764Y652330D01*
X79230Y649864D01*
X80564Y646643D01*
X80564Y643157D01*
X79230Y639936D01*
X76764Y637470D01*
X73543Y636136D01*
X70057Y636136D01*
G37*
%LPD*%
%LPC*%
G36*
X595157Y613536D02*
X595157Y613536D01*
X591936Y614870D01*
X589470Y617336D01*
X588136Y620557D01*
X588136Y624043D01*
X589470Y627264D01*
X591936Y629730D01*
X595157Y631064D01*
X598643Y631064D01*
X601864Y629730D01*
X604330Y627264D01*
X605664Y624043D01*
X605664Y620557D01*
X604330Y617336D01*
X601864Y614870D01*
X598643Y613536D01*
X595157Y613536D01*
G37*
%LPD*%
%LPC*%
G36*
X95457Y610736D02*
X95457Y610736D01*
X92236Y612070D01*
X89770Y614536D01*
X88436Y617757D01*
X88436Y621243D01*
X89770Y624464D01*
X92236Y626930D01*
X95457Y628264D01*
X98943Y628264D01*
X102164Y626930D01*
X104630Y624464D01*
X105964Y621243D01*
X105964Y617757D01*
X104630Y614536D01*
X102164Y612070D01*
X98943Y610736D01*
X95457Y610736D01*
G37*
%LPD*%
%LPC*%
G36*
X70057Y610736D02*
X70057Y610736D01*
X66836Y612070D01*
X64370Y614536D01*
X63036Y617757D01*
X63036Y621243D01*
X64370Y624464D01*
X66836Y626930D01*
X70057Y628264D01*
X73543Y628264D01*
X76764Y626930D01*
X79230Y624464D01*
X80564Y621243D01*
X80564Y617757D01*
X79230Y614536D01*
X76764Y612070D01*
X73543Y610736D01*
X70057Y610736D01*
G37*
%LPD*%
%LPC*%
G36*
X501857Y610736D02*
X501857Y610736D01*
X498636Y612070D01*
X496170Y614536D01*
X494836Y617757D01*
X494836Y621243D01*
X496170Y624464D01*
X498636Y626930D01*
X501857Y628264D01*
X505343Y628264D01*
X508564Y626930D01*
X511030Y624464D01*
X512364Y621243D01*
X512364Y617757D01*
X511030Y614536D01*
X508564Y612070D01*
X505343Y610736D01*
X501857Y610736D01*
G37*
%LPD*%
%LPC*%
G36*
X476457Y610736D02*
X476457Y610736D01*
X473236Y612070D01*
X470770Y614536D01*
X469436Y617757D01*
X469436Y621243D01*
X470770Y624464D01*
X473236Y626930D01*
X476457Y628264D01*
X479943Y628264D01*
X483164Y626930D01*
X485630Y624464D01*
X486964Y621243D01*
X486964Y617757D01*
X485630Y614536D01*
X483164Y612070D01*
X479943Y610736D01*
X476457Y610736D01*
G37*
%LPD*%
%LPC*%
G36*
X451057Y610736D02*
X451057Y610736D01*
X447836Y612070D01*
X445370Y614536D01*
X444036Y617757D01*
X444036Y621243D01*
X445370Y624464D01*
X447836Y626930D01*
X451057Y628264D01*
X454543Y628264D01*
X457764Y626930D01*
X460230Y624464D01*
X461564Y621243D01*
X461564Y617757D01*
X460230Y614536D01*
X457764Y612070D01*
X454543Y610736D01*
X451057Y610736D01*
G37*
%LPD*%
%LPC*%
G36*
X425657Y610736D02*
X425657Y610736D01*
X422436Y612070D01*
X419970Y614536D01*
X418636Y617757D01*
X418636Y621243D01*
X419970Y624464D01*
X422436Y626930D01*
X425657Y628264D01*
X429143Y628264D01*
X432364Y626930D01*
X434830Y624464D01*
X436164Y621243D01*
X436164Y617757D01*
X434830Y614536D01*
X432364Y612070D01*
X429143Y610736D01*
X425657Y610736D01*
G37*
%LPD*%
%LPC*%
G36*
X400257Y610736D02*
X400257Y610736D01*
X397036Y612070D01*
X394570Y614536D01*
X393236Y617757D01*
X393236Y621243D01*
X394570Y624464D01*
X397036Y626930D01*
X400257Y628264D01*
X403743Y628264D01*
X406964Y626930D01*
X409430Y624464D01*
X410764Y621243D01*
X410764Y617757D01*
X409430Y614536D01*
X406964Y612070D01*
X403743Y610736D01*
X400257Y610736D01*
G37*
%LPD*%
%LPC*%
G36*
X374857Y610736D02*
X374857Y610736D01*
X371636Y612070D01*
X369170Y614536D01*
X367836Y617757D01*
X367836Y621243D01*
X369170Y624464D01*
X371636Y626930D01*
X374857Y628264D01*
X378343Y628264D01*
X381564Y626930D01*
X384030Y624464D01*
X385364Y621243D01*
X385364Y617757D01*
X384030Y614536D01*
X381564Y612070D01*
X378343Y610736D01*
X374857Y610736D01*
G37*
%LPD*%
%LPC*%
G36*
X324057Y610736D02*
X324057Y610736D01*
X320836Y612070D01*
X318370Y614536D01*
X317036Y617757D01*
X317036Y621243D01*
X318370Y624464D01*
X320836Y626930D01*
X324057Y628264D01*
X327543Y628264D01*
X330764Y626930D01*
X333230Y624464D01*
X334564Y621243D01*
X334564Y617757D01*
X333230Y614536D01*
X330764Y612070D01*
X327543Y610736D01*
X324057Y610736D01*
G37*
%LPD*%
%LPC*%
G36*
X298657Y610736D02*
X298657Y610736D01*
X295436Y612070D01*
X292970Y614536D01*
X291636Y617757D01*
X291636Y621243D01*
X292970Y624464D01*
X295436Y626930D01*
X298657Y628264D01*
X302143Y628264D01*
X305364Y626930D01*
X307830Y624464D01*
X309164Y621243D01*
X309164Y617757D01*
X307830Y614536D01*
X305364Y612070D01*
X302143Y610736D01*
X298657Y610736D01*
G37*
%LPD*%
%LPC*%
G36*
X273257Y610736D02*
X273257Y610736D01*
X270036Y612070D01*
X267570Y614536D01*
X266236Y617757D01*
X266236Y621243D01*
X267570Y624464D01*
X270036Y626930D01*
X273257Y628264D01*
X276743Y628264D01*
X279964Y626930D01*
X282430Y624464D01*
X283764Y621243D01*
X283764Y617757D01*
X282430Y614536D01*
X279964Y612070D01*
X276743Y610736D01*
X273257Y610736D01*
G37*
%LPD*%
%LPC*%
G36*
X247857Y610736D02*
X247857Y610736D01*
X244636Y612070D01*
X242170Y614536D01*
X240836Y617757D01*
X240836Y621243D01*
X242170Y624464D01*
X244636Y626930D01*
X247857Y628264D01*
X251343Y628264D01*
X254564Y626930D01*
X257030Y624464D01*
X258364Y621243D01*
X258364Y617757D01*
X257030Y614536D01*
X254564Y612070D01*
X251343Y610736D01*
X247857Y610736D01*
G37*
%LPD*%
%LPC*%
G36*
X197057Y610736D02*
X197057Y610736D01*
X193836Y612070D01*
X191370Y614536D01*
X190036Y617757D01*
X190036Y621243D01*
X191370Y624464D01*
X193836Y626930D01*
X197057Y628264D01*
X200543Y628264D01*
X203764Y626930D01*
X206230Y624464D01*
X207564Y621243D01*
X207564Y617757D01*
X206230Y614536D01*
X203764Y612070D01*
X200543Y610736D01*
X197057Y610736D01*
G37*
%LPD*%
%LPC*%
G36*
X171657Y610736D02*
X171657Y610736D01*
X168436Y612070D01*
X165970Y614536D01*
X164636Y617757D01*
X164636Y621243D01*
X165970Y624464D01*
X168436Y626930D01*
X171657Y628264D01*
X175143Y628264D01*
X178364Y626930D01*
X180830Y624464D01*
X182164Y621243D01*
X182164Y617757D01*
X180830Y614536D01*
X178364Y612070D01*
X175143Y610736D01*
X171657Y610736D01*
G37*
%LPD*%
%LPC*%
G36*
X146257Y610736D02*
X146257Y610736D01*
X143036Y612070D01*
X140570Y614536D01*
X139236Y617757D01*
X139236Y621243D01*
X140570Y624464D01*
X143036Y626930D01*
X146257Y628264D01*
X149743Y628264D01*
X152964Y626930D01*
X155430Y624464D01*
X156764Y621243D01*
X156764Y617757D01*
X155430Y614536D01*
X152964Y612070D01*
X149743Y610736D01*
X146257Y610736D01*
G37*
%LPD*%
%LPC*%
G36*
X120857Y610736D02*
X120857Y610736D01*
X117636Y612070D01*
X115170Y614536D01*
X113836Y617757D01*
X113836Y621243D01*
X115170Y624464D01*
X117636Y626930D01*
X120857Y628264D01*
X124343Y628264D01*
X127564Y626930D01*
X130030Y624464D01*
X131364Y621243D01*
X131364Y617757D01*
X130030Y614536D01*
X127564Y612070D01*
X124343Y610736D01*
X120857Y610736D01*
G37*
%LPD*%
%LPC*%
G36*
X374857Y382136D02*
X374857Y382136D01*
X371636Y383470D01*
X369170Y385936D01*
X367836Y389157D01*
X367836Y392643D01*
X369170Y395864D01*
X371636Y398330D01*
X374857Y399664D01*
X378343Y399664D01*
X381564Y398330D01*
X384030Y395864D01*
X385364Y392643D01*
X385364Y389157D01*
X384030Y385936D01*
X381564Y383470D01*
X378343Y382136D01*
X374857Y382136D01*
G37*
%LPD*%
%LPC*%
G36*
X595157Y588136D02*
X595157Y588136D01*
X591936Y589470D01*
X589470Y591936D01*
X588136Y595157D01*
X588136Y598643D01*
X589470Y601864D01*
X591936Y604330D01*
X595157Y605664D01*
X598643Y605664D01*
X601864Y604330D01*
X604330Y601864D01*
X605664Y598643D01*
X605664Y595157D01*
X604330Y591936D01*
X601864Y589470D01*
X598643Y588136D01*
X595157Y588136D01*
G37*
%LPD*%
%LPC*%
G36*
X595157Y562736D02*
X595157Y562736D01*
X591936Y564070D01*
X589470Y566536D01*
X588136Y569757D01*
X588136Y573243D01*
X589470Y576464D01*
X591936Y578930D01*
X595157Y580264D01*
X598643Y580264D01*
X601864Y578930D01*
X604330Y576464D01*
X605664Y573243D01*
X605664Y569757D01*
X604330Y566536D01*
X601864Y564070D01*
X598643Y562736D01*
X595157Y562736D01*
G37*
%LPD*%
%LPC*%
G36*
X95457Y382136D02*
X95457Y382136D01*
X92236Y383470D01*
X89770Y385936D01*
X88436Y389157D01*
X88436Y392643D01*
X89770Y395864D01*
X92236Y398330D01*
X95457Y399664D01*
X98943Y399664D01*
X102164Y398330D01*
X104630Y395864D01*
X105964Y392643D01*
X105964Y389157D01*
X104630Y385936D01*
X102164Y383470D01*
X98943Y382136D01*
X95457Y382136D01*
G37*
%LPD*%
%LPC*%
G36*
X70057Y382136D02*
X70057Y382136D01*
X66836Y383470D01*
X64370Y385936D01*
X63036Y389157D01*
X63036Y392643D01*
X64370Y395864D01*
X66836Y398330D01*
X70057Y399664D01*
X73543Y399664D01*
X76764Y398330D01*
X79230Y395864D01*
X80564Y392643D01*
X80564Y389157D01*
X79230Y385936D01*
X76764Y383470D01*
X73543Y382136D01*
X70057Y382136D01*
G37*
%LPD*%
%LPC*%
G36*
X501857Y382136D02*
X501857Y382136D01*
X498636Y383470D01*
X496170Y385936D01*
X494836Y389157D01*
X494836Y392643D01*
X496170Y395864D01*
X498636Y398330D01*
X501857Y399664D01*
X505343Y399664D01*
X508564Y398330D01*
X511030Y395864D01*
X512364Y392643D01*
X512364Y389157D01*
X511030Y385936D01*
X508564Y383470D01*
X505343Y382136D01*
X501857Y382136D01*
G37*
%LPD*%
%LPC*%
G36*
X476457Y382136D02*
X476457Y382136D01*
X473236Y383470D01*
X470770Y385936D01*
X469436Y389157D01*
X469436Y392643D01*
X470770Y395864D01*
X473236Y398330D01*
X476457Y399664D01*
X479943Y399664D01*
X483164Y398330D01*
X485630Y395864D01*
X486964Y392643D01*
X486964Y389157D01*
X485630Y385936D01*
X483164Y383470D01*
X479943Y382136D01*
X476457Y382136D01*
G37*
%LPD*%
%LPC*%
G36*
X451057Y382136D02*
X451057Y382136D01*
X447836Y383470D01*
X445370Y385936D01*
X444036Y389157D01*
X444036Y392643D01*
X445370Y395864D01*
X447836Y398330D01*
X451057Y399664D01*
X454543Y399664D01*
X457764Y398330D01*
X460230Y395864D01*
X461564Y392643D01*
X461564Y389157D01*
X460230Y385936D01*
X457764Y383470D01*
X454543Y382136D01*
X451057Y382136D01*
G37*
%LPD*%
%LPC*%
G36*
X425657Y382136D02*
X425657Y382136D01*
X422436Y383470D01*
X419970Y385936D01*
X418636Y389157D01*
X418636Y392643D01*
X419970Y395864D01*
X422436Y398330D01*
X425657Y399664D01*
X429143Y399664D01*
X432364Y398330D01*
X434830Y395864D01*
X436164Y392643D01*
X436164Y389157D01*
X434830Y385936D01*
X432364Y383470D01*
X429143Y382136D01*
X425657Y382136D01*
G37*
%LPD*%
%LPC*%
G36*
X400257Y382136D02*
X400257Y382136D01*
X397036Y383470D01*
X394570Y385936D01*
X393236Y389157D01*
X393236Y392643D01*
X394570Y395864D01*
X397036Y398330D01*
X400257Y399664D01*
X403743Y399664D01*
X406964Y398330D01*
X409430Y395864D01*
X410764Y392643D01*
X410764Y389157D01*
X409430Y385936D01*
X406964Y383470D01*
X403743Y382136D01*
X400257Y382136D01*
G37*
%LPD*%
%LPC*%
G36*
X197057Y636136D02*
X197057Y636136D01*
X193836Y637470D01*
X191370Y639936D01*
X190036Y643157D01*
X190036Y646643D01*
X191370Y649864D01*
X193836Y652330D01*
X197057Y653664D01*
X200543Y653664D01*
X203764Y652330D01*
X206230Y649864D01*
X207564Y646643D01*
X207564Y643157D01*
X206230Y639936D01*
X203764Y637470D01*
X200543Y636136D01*
X197057Y636136D01*
G37*
%LPD*%
%LPC*%
G36*
X349457Y382136D02*
X349457Y382136D01*
X346236Y383470D01*
X343770Y385936D01*
X342436Y389157D01*
X342436Y392643D01*
X343770Y395864D01*
X346236Y398330D01*
X349457Y399664D01*
X352943Y399664D01*
X356164Y398330D01*
X358630Y395864D01*
X359964Y392643D01*
X359964Y389157D01*
X358630Y385936D01*
X356164Y383470D01*
X352943Y382136D01*
X349457Y382136D01*
G37*
%LPD*%
%LPC*%
G36*
X324057Y382136D02*
X324057Y382136D01*
X320836Y383470D01*
X318370Y385936D01*
X317036Y389157D01*
X317036Y392643D01*
X318370Y395864D01*
X320836Y398330D01*
X324057Y399664D01*
X327543Y399664D01*
X330764Y398330D01*
X333230Y395864D01*
X334564Y392643D01*
X334564Y389157D01*
X333230Y385936D01*
X330764Y383470D01*
X327543Y382136D01*
X324057Y382136D01*
G37*
%LPD*%
%LPC*%
G36*
X298657Y382136D02*
X298657Y382136D01*
X295436Y383470D01*
X292970Y385936D01*
X291636Y389157D01*
X291636Y392643D01*
X292970Y395864D01*
X295436Y398330D01*
X298657Y399664D01*
X302143Y399664D01*
X305364Y398330D01*
X307830Y395864D01*
X309164Y392643D01*
X309164Y389157D01*
X307830Y385936D01*
X305364Y383470D01*
X302143Y382136D01*
X298657Y382136D01*
G37*
%LPD*%
%LPC*%
G36*
X247857Y382136D02*
X247857Y382136D01*
X244636Y383470D01*
X242170Y385936D01*
X240836Y389157D01*
X240836Y392643D01*
X242170Y395864D01*
X244636Y398330D01*
X247857Y399664D01*
X251343Y399664D01*
X254564Y398330D01*
X257030Y395864D01*
X258364Y392643D01*
X258364Y389157D01*
X257030Y385936D01*
X254564Y383470D01*
X251343Y382136D01*
X247857Y382136D01*
G37*
%LPD*%
%LPC*%
G36*
X222457Y382136D02*
X222457Y382136D01*
X219236Y383470D01*
X216770Y385936D01*
X215436Y389157D01*
X215436Y392643D01*
X216770Y395864D01*
X219236Y398330D01*
X222457Y399664D01*
X225943Y399664D01*
X229164Y398330D01*
X231630Y395864D01*
X232964Y392643D01*
X232964Y389157D01*
X231630Y385936D01*
X229164Y383470D01*
X225943Y382136D01*
X222457Y382136D01*
G37*
%LPD*%
%LPC*%
G36*
X197057Y382136D02*
X197057Y382136D01*
X193836Y383470D01*
X191370Y385936D01*
X190036Y389157D01*
X190036Y392643D01*
X191370Y395864D01*
X193836Y398330D01*
X197057Y399664D01*
X200543Y399664D01*
X203764Y398330D01*
X206230Y395864D01*
X207564Y392643D01*
X207564Y389157D01*
X206230Y385936D01*
X203764Y383470D01*
X200543Y382136D01*
X197057Y382136D01*
G37*
%LPD*%
%LPC*%
G36*
X171657Y382136D02*
X171657Y382136D01*
X168436Y383470D01*
X165970Y385936D01*
X164636Y389157D01*
X164636Y392643D01*
X165970Y395864D01*
X168436Y398330D01*
X171657Y399664D01*
X175143Y399664D01*
X178364Y398330D01*
X180830Y395864D01*
X182164Y392643D01*
X182164Y389157D01*
X180830Y385936D01*
X178364Y383470D01*
X175143Y382136D01*
X171657Y382136D01*
G37*
%LPD*%
%LPC*%
G36*
X146257Y382136D02*
X146257Y382136D01*
X143036Y383470D01*
X140570Y385936D01*
X139236Y389157D01*
X139236Y392643D01*
X140570Y395864D01*
X143036Y398330D01*
X146257Y399664D01*
X149743Y399664D01*
X152964Y398330D01*
X155430Y395864D01*
X156764Y392643D01*
X156764Y389157D01*
X155430Y385936D01*
X152964Y383470D01*
X149743Y382136D01*
X146257Y382136D01*
G37*
%LPD*%
%LPC*%
G36*
X120857Y382136D02*
X120857Y382136D01*
X117636Y383470D01*
X115170Y385936D01*
X113836Y389157D01*
X113836Y392643D01*
X115170Y395864D01*
X117636Y398330D01*
X120857Y399664D01*
X124343Y399664D01*
X127564Y398330D01*
X130030Y395864D01*
X131364Y392643D01*
X131364Y389157D01*
X130030Y385936D01*
X127564Y383470D01*
X124343Y382136D01*
X120857Y382136D01*
G37*
%LPD*%
%LPC*%
G36*
X501857Y356736D02*
X501857Y356736D01*
X498636Y358070D01*
X496170Y360536D01*
X494836Y363757D01*
X494836Y367243D01*
X496170Y370464D01*
X498636Y372930D01*
X501857Y374264D01*
X505343Y374264D01*
X508564Y372930D01*
X511030Y370464D01*
X512364Y367243D01*
X512364Y363757D01*
X511030Y360536D01*
X508564Y358070D01*
X505343Y356736D01*
X501857Y356736D01*
G37*
%LPD*%
%LPC*%
G36*
X400257Y356736D02*
X400257Y356736D01*
X397036Y358070D01*
X394570Y360536D01*
X393236Y363757D01*
X393236Y367243D01*
X394570Y370464D01*
X397036Y372930D01*
X400257Y374264D01*
X403743Y374264D01*
X406964Y372930D01*
X409430Y370464D01*
X410764Y367243D01*
X410764Y363757D01*
X409430Y360536D01*
X406964Y358070D01*
X403743Y356736D01*
X400257Y356736D01*
G37*
%LPD*%
%LPC*%
G36*
X374857Y356736D02*
X374857Y356736D01*
X371636Y358070D01*
X369170Y360536D01*
X367836Y363757D01*
X367836Y367243D01*
X369170Y370464D01*
X371636Y372930D01*
X374857Y374264D01*
X378343Y374264D01*
X381564Y372930D01*
X384030Y370464D01*
X385364Y367243D01*
X385364Y363757D01*
X384030Y360536D01*
X381564Y358070D01*
X378343Y356736D01*
X374857Y356736D01*
G37*
%LPD*%
%LPC*%
G36*
X476457Y356736D02*
X476457Y356736D01*
X473236Y358070D01*
X470770Y360536D01*
X469436Y363757D01*
X469436Y367243D01*
X470770Y370464D01*
X473236Y372930D01*
X476457Y374264D01*
X479943Y374264D01*
X483164Y372930D01*
X485630Y370464D01*
X486964Y367243D01*
X486964Y363757D01*
X485630Y360536D01*
X483164Y358070D01*
X479943Y356736D01*
X476457Y356736D01*
G37*
%LPD*%
%LPC*%
G36*
X451057Y356736D02*
X451057Y356736D01*
X447836Y358070D01*
X445370Y360536D01*
X444036Y363757D01*
X444036Y367243D01*
X445370Y370464D01*
X447836Y372930D01*
X451057Y374264D01*
X454543Y374264D01*
X457764Y372930D01*
X460230Y370464D01*
X461564Y367243D01*
X461564Y363757D01*
X460230Y360536D01*
X457764Y358070D01*
X454543Y356736D01*
X451057Y356736D01*
G37*
%LPD*%
%LPC*%
G36*
X425657Y356736D02*
X425657Y356736D01*
X422436Y358070D01*
X419970Y360536D01*
X418636Y363757D01*
X418636Y367243D01*
X419970Y370464D01*
X422436Y372930D01*
X425657Y374264D01*
X429143Y374264D01*
X432364Y372930D01*
X434830Y370464D01*
X436164Y367243D01*
X436164Y363757D01*
X434830Y360536D01*
X432364Y358070D01*
X429143Y356736D01*
X425657Y356736D01*
G37*
%LPD*%
%LPC*%
G36*
X95457Y356736D02*
X95457Y356736D01*
X92236Y358070D01*
X89770Y360536D01*
X88436Y363757D01*
X88436Y367243D01*
X89770Y370464D01*
X92236Y372930D01*
X95457Y374264D01*
X98943Y374264D01*
X102164Y372930D01*
X104630Y370464D01*
X105964Y367243D01*
X105964Y363757D01*
X104630Y360536D01*
X102164Y358070D01*
X98943Y356736D01*
X95457Y356736D01*
G37*
%LPD*%
%LPC*%
G36*
X70057Y356736D02*
X70057Y356736D01*
X66836Y358070D01*
X64370Y360536D01*
X63036Y363757D01*
X63036Y367243D01*
X64370Y370464D01*
X66836Y372930D01*
X70057Y374264D01*
X73543Y374264D01*
X76764Y372930D01*
X79230Y370464D01*
X80564Y367243D01*
X80564Y363757D01*
X79230Y360536D01*
X76764Y358070D01*
X73543Y356736D01*
X70057Y356736D01*
G37*
%LPD*%
%LPC*%
G36*
X349457Y356736D02*
X349457Y356736D01*
X346236Y358070D01*
X343770Y360536D01*
X342436Y363757D01*
X342436Y367243D01*
X343770Y370464D01*
X346236Y372930D01*
X349457Y374264D01*
X352943Y374264D01*
X356164Y372930D01*
X358630Y370464D01*
X359964Y367243D01*
X359964Y363757D01*
X358630Y360536D01*
X356164Y358070D01*
X352943Y356736D01*
X349457Y356736D01*
G37*
%LPD*%
%LPC*%
G36*
X324057Y356736D02*
X324057Y356736D01*
X320836Y358070D01*
X318370Y360536D01*
X317036Y363757D01*
X317036Y367243D01*
X318370Y370464D01*
X320836Y372930D01*
X324057Y374264D01*
X327543Y374264D01*
X330764Y372930D01*
X333230Y370464D01*
X334564Y367243D01*
X334564Y363757D01*
X333230Y360536D01*
X330764Y358070D01*
X327543Y356736D01*
X324057Y356736D01*
G37*
%LPD*%
%LPC*%
G36*
X298657Y356736D02*
X298657Y356736D01*
X295436Y358070D01*
X292970Y360536D01*
X291636Y363757D01*
X291636Y367243D01*
X292970Y370464D01*
X295436Y372930D01*
X298657Y374264D01*
X302143Y374264D01*
X305364Y372930D01*
X307830Y370464D01*
X309164Y367243D01*
X309164Y363757D01*
X307830Y360536D01*
X305364Y358070D01*
X302143Y356736D01*
X298657Y356736D01*
G37*
%LPD*%
%LPC*%
G36*
X273257Y356736D02*
X273257Y356736D01*
X270036Y358070D01*
X267570Y360536D01*
X266236Y363757D01*
X266236Y367243D01*
X267570Y370464D01*
X270036Y372930D01*
X273257Y374264D01*
X276743Y374264D01*
X279964Y372930D01*
X282430Y370464D01*
X283764Y367243D01*
X283764Y363757D01*
X282430Y360536D01*
X279964Y358070D01*
X276743Y356736D01*
X273257Y356736D01*
G37*
%LPD*%
%LPC*%
G36*
X247857Y356736D02*
X247857Y356736D01*
X244636Y358070D01*
X242170Y360536D01*
X240836Y363757D01*
X240836Y367243D01*
X242170Y370464D01*
X244636Y372930D01*
X247857Y374264D01*
X251343Y374264D01*
X254564Y372930D01*
X257030Y370464D01*
X258364Y367243D01*
X258364Y363757D01*
X257030Y360536D01*
X254564Y358070D01*
X251343Y356736D01*
X247857Y356736D01*
G37*
%LPD*%
%LPC*%
G36*
X222457Y356736D02*
X222457Y356736D01*
X219236Y358070D01*
X216770Y360536D01*
X215436Y363757D01*
X215436Y367243D01*
X216770Y370464D01*
X219236Y372930D01*
X222457Y374264D01*
X225943Y374264D01*
X229164Y372930D01*
X231630Y370464D01*
X232964Y367243D01*
X232964Y363757D01*
X231630Y360536D01*
X229164Y358070D01*
X225943Y356736D01*
X222457Y356736D01*
G37*
%LPD*%
%LPC*%
G36*
X197057Y356736D02*
X197057Y356736D01*
X193836Y358070D01*
X191370Y360536D01*
X190036Y363757D01*
X190036Y367243D01*
X191370Y370464D01*
X193836Y372930D01*
X197057Y374264D01*
X200543Y374264D01*
X203764Y372930D01*
X206230Y370464D01*
X207564Y367243D01*
X207564Y363757D01*
X206230Y360536D01*
X203764Y358070D01*
X200543Y356736D01*
X197057Y356736D01*
G37*
%LPD*%
%LPC*%
G36*
X146257Y356736D02*
X146257Y356736D01*
X143036Y358070D01*
X140570Y360536D01*
X139236Y363757D01*
X139236Y367243D01*
X140570Y370464D01*
X143036Y372930D01*
X146257Y374264D01*
X149743Y374264D01*
X152964Y372930D01*
X155430Y370464D01*
X156764Y367243D01*
X156764Y363757D01*
X155430Y360536D01*
X152964Y358070D01*
X149743Y356736D01*
X146257Y356736D01*
G37*
%LPD*%
%LPC*%
G36*
X120857Y356736D02*
X120857Y356736D01*
X117636Y358070D01*
X115170Y360536D01*
X113836Y363757D01*
X113836Y367243D01*
X115170Y370464D01*
X117636Y372930D01*
X120857Y374264D01*
X124343Y374264D01*
X127564Y372930D01*
X130030Y370464D01*
X131364Y367243D01*
X131364Y363757D01*
X130030Y360536D01*
X127564Y358070D01*
X124343Y356736D01*
X120857Y356736D01*
G37*
%LPD*%
%LPC*%
G36*
X501857Y636136D02*
X501857Y636136D01*
X498636Y637470D01*
X496170Y639936D01*
X494836Y643157D01*
X494836Y646643D01*
X496170Y649864D01*
X498636Y652330D01*
X501857Y653664D01*
X505343Y653664D01*
X508564Y652330D01*
X511030Y649864D01*
X512364Y646643D01*
X512364Y643157D01*
X511030Y639936D01*
X508564Y637470D01*
X505343Y636136D01*
X501857Y636136D01*
G37*
%LPD*%
%LPC*%
G36*
X476457Y636136D02*
X476457Y636136D01*
X473236Y637470D01*
X470770Y639936D01*
X469436Y643157D01*
X469436Y646643D01*
X470770Y649864D01*
X473236Y652330D01*
X476457Y653664D01*
X479943Y653664D01*
X483164Y652330D01*
X485630Y649864D01*
X486964Y646643D01*
X486964Y643157D01*
X485630Y639936D01*
X483164Y637470D01*
X479943Y636136D01*
X476457Y636136D01*
G37*
%LPD*%
%LPC*%
G36*
X451057Y636136D02*
X451057Y636136D01*
X447836Y637470D01*
X445370Y639936D01*
X444036Y643157D01*
X444036Y646643D01*
X445370Y649864D01*
X447836Y652330D01*
X451057Y653664D01*
X454543Y653664D01*
X457764Y652330D01*
X460230Y649864D01*
X461564Y646643D01*
X461564Y643157D01*
X460230Y639936D01*
X457764Y637470D01*
X454543Y636136D01*
X451057Y636136D01*
G37*
%LPD*%
%LPC*%
G36*
X425657Y636136D02*
X425657Y636136D01*
X422436Y637470D01*
X419970Y639936D01*
X418636Y643157D01*
X418636Y646643D01*
X419970Y649864D01*
X422436Y652330D01*
X425657Y653664D01*
X429143Y653664D01*
X432364Y652330D01*
X434830Y649864D01*
X436164Y646643D01*
X436164Y643157D01*
X434830Y639936D01*
X432364Y637470D01*
X429143Y636136D01*
X425657Y636136D01*
G37*
%LPD*%
%LPC*%
G36*
X400257Y636136D02*
X400257Y636136D01*
X397036Y637470D01*
X394570Y639936D01*
X393236Y643157D01*
X393236Y646643D01*
X394570Y649864D01*
X397036Y652330D01*
X400257Y653664D01*
X403743Y653664D01*
X406964Y652330D01*
X409430Y649864D01*
X410764Y646643D01*
X410764Y643157D01*
X409430Y639936D01*
X406964Y637470D01*
X403743Y636136D01*
X400257Y636136D01*
G37*
%LPD*%
%LPC*%
G36*
X374857Y636136D02*
X374857Y636136D01*
X371636Y637470D01*
X369170Y639936D01*
X367836Y643157D01*
X367836Y646643D01*
X369170Y649864D01*
X371636Y652330D01*
X374857Y653664D01*
X378343Y653664D01*
X381564Y652330D01*
X384030Y649864D01*
X385364Y646643D01*
X385364Y643157D01*
X384030Y639936D01*
X381564Y637470D01*
X378343Y636136D01*
X374857Y636136D01*
G37*
%LPD*%
%LPC*%
G36*
X349457Y636136D02*
X349457Y636136D01*
X346236Y637470D01*
X343770Y639936D01*
X342436Y643157D01*
X342436Y646643D01*
X343770Y649864D01*
X346236Y652330D01*
X349457Y653664D01*
X352943Y653664D01*
X356164Y652330D01*
X358630Y649864D01*
X359964Y646643D01*
X359964Y643157D01*
X358630Y639936D01*
X356164Y637470D01*
X352943Y636136D01*
X349457Y636136D01*
G37*
%LPD*%
%LPC*%
G36*
X324057Y636136D02*
X324057Y636136D01*
X320836Y637470D01*
X318370Y639936D01*
X317036Y643157D01*
X317036Y646643D01*
X318370Y649864D01*
X320836Y652330D01*
X324057Y653664D01*
X327543Y653664D01*
X330764Y652330D01*
X333230Y649864D01*
X334564Y646643D01*
X334564Y643157D01*
X333230Y639936D01*
X330764Y637470D01*
X327543Y636136D01*
X324057Y636136D01*
G37*
%LPD*%
%LPC*%
G36*
X298657Y636136D02*
X298657Y636136D01*
X295436Y637470D01*
X292970Y639936D01*
X291636Y643157D01*
X291636Y646643D01*
X292970Y649864D01*
X295436Y652330D01*
X298657Y653664D01*
X302143Y653664D01*
X305364Y652330D01*
X307830Y649864D01*
X309164Y646643D01*
X309164Y643157D01*
X307830Y639936D01*
X305364Y637470D01*
X302143Y636136D01*
X298657Y636136D01*
G37*
%LPD*%
%LPC*%
G36*
X273257Y636136D02*
X273257Y636136D01*
X270036Y637470D01*
X267570Y639936D01*
X266236Y643157D01*
X266236Y646643D01*
X267570Y649864D01*
X270036Y652330D01*
X273257Y653664D01*
X276743Y653664D01*
X279964Y652330D01*
X282430Y649864D01*
X283764Y646643D01*
X283764Y643157D01*
X282430Y639936D01*
X279964Y637470D01*
X276743Y636136D01*
X273257Y636136D01*
G37*
%LPD*%
%LPC*%
G36*
X171657Y356736D02*
X171657Y356736D01*
X168436Y358070D01*
X165970Y360536D01*
X164636Y363757D01*
X164636Y367243D01*
X165970Y370464D01*
X168436Y372930D01*
X171657Y374264D01*
X175143Y374264D01*
X178364Y372930D01*
X180830Y370464D01*
X182164Y367243D01*
X182164Y363757D01*
X180830Y360536D01*
X178364Y358070D01*
X175143Y356736D01*
X171657Y356736D01*
G37*
%LPD*%
%LPC*%
G36*
X613195Y429735D02*
X613195Y429735D01*
X610598Y430811D01*
X608611Y432798D01*
X607535Y435395D01*
X607535Y438205D01*
X608611Y440802D01*
X610598Y442789D01*
X613195Y443865D01*
X616005Y443865D01*
X618602Y442789D01*
X620589Y440802D01*
X621665Y438205D01*
X621665Y435395D01*
X620589Y432798D01*
X618602Y430811D01*
X616005Y429735D01*
X613195Y429735D01*
G37*
%LPD*%
%LPC*%
G36*
X663195Y429735D02*
X663195Y429735D01*
X660598Y430811D01*
X658611Y432798D01*
X657535Y435395D01*
X657535Y438205D01*
X658611Y440802D01*
X660598Y442789D01*
X663195Y443865D01*
X666005Y443865D01*
X668602Y442789D01*
X670589Y440802D01*
X671665Y438205D01*
X671665Y435395D01*
X670589Y432798D01*
X668602Y430811D01*
X666005Y429735D01*
X663195Y429735D01*
G37*
%LPD*%
%LPC*%
G36*
X726799Y116799D02*
X726799Y116799D01*
X726799Y123520D01*
X727962Y123142D01*
X729301Y122460D01*
X730515Y121577D01*
X731577Y120515D01*
X732460Y119301D01*
X733142Y117962D01*
X733520Y116799D01*
X726799Y116799D01*
G37*
%LPD*%
%LPC*%
G36*
X715080Y116799D02*
X715080Y116799D01*
X715458Y117962D01*
X716140Y119301D01*
X717023Y120515D01*
X718085Y121577D01*
X719299Y122460D01*
X720638Y123142D01*
X721801Y123520D01*
X721801Y116799D01*
X715080Y116799D01*
G37*
%LPD*%
%LPC*%
G36*
X726799Y111801D02*
X726799Y111801D01*
X733520Y111801D01*
X733142Y110638D01*
X732460Y109299D01*
X731577Y108085D01*
X730515Y107023D01*
X729301Y106140D01*
X727962Y105458D01*
X726799Y105080D01*
X726799Y111801D01*
G37*
%LPD*%
%LPC*%
G36*
X720638Y105458D02*
X720638Y105458D01*
X719299Y106140D01*
X718085Y107023D01*
X717023Y108085D01*
X716140Y109299D01*
X715458Y110638D01*
X715080Y111801D01*
X721801Y111801D01*
X721801Y105080D01*
X720638Y105458D01*
G37*
%LPD*%
%LPC*%
G36*
X226422Y621722D02*
X226422Y621722D01*
X226422Y627993D01*
X226756Y627927D01*
X228351Y627266D01*
X229787Y626307D01*
X231007Y625087D01*
X231966Y623651D01*
X232627Y622056D01*
X232693Y621722D01*
X226422Y621722D01*
G37*
%LPD*%
%LPC*%
G36*
X277222Y393122D02*
X277222Y393122D01*
X277222Y399393D01*
X277556Y399327D01*
X279151Y398666D01*
X280587Y397707D01*
X281807Y396487D01*
X282766Y395051D01*
X283427Y393456D01*
X283493Y393122D01*
X277222Y393122D01*
G37*
%LPD*%
%LPC*%
G36*
X353422Y621722D02*
X353422Y621722D01*
X353422Y627993D01*
X353756Y627927D01*
X355351Y627266D01*
X356787Y626307D01*
X358007Y625087D01*
X358966Y623651D01*
X359627Y622056D01*
X359693Y621722D01*
X353422Y621722D01*
G37*
%LPD*%
%LPC*%
G36*
X215707Y621722D02*
X215707Y621722D01*
X215773Y622056D01*
X216434Y623651D01*
X217393Y625087D01*
X218613Y626307D01*
X220049Y627266D01*
X221644Y627927D01*
X221978Y627993D01*
X221978Y621722D01*
X215707Y621722D01*
G37*
%LPD*%
%LPC*%
G36*
X277222Y388678D02*
X277222Y388678D01*
X283493Y388678D01*
X283427Y388344D01*
X282766Y386749D01*
X281807Y385313D01*
X280587Y384093D01*
X279151Y383134D01*
X277556Y382473D01*
X277222Y382407D01*
X277222Y388678D01*
G37*
%LPD*%
%LPC*%
G36*
X226422Y617278D02*
X226422Y617278D01*
X232693Y617278D01*
X232627Y616944D01*
X231966Y615349D01*
X231007Y613913D01*
X229787Y612693D01*
X228351Y611734D01*
X226756Y611073D01*
X226422Y611007D01*
X226422Y617278D01*
G37*
%LPD*%
%LPC*%
G36*
X266507Y393122D02*
X266507Y393122D01*
X266573Y393456D01*
X267234Y395051D01*
X268193Y396487D01*
X269413Y397707D01*
X270849Y398666D01*
X272444Y399327D01*
X272778Y399393D01*
X272778Y393122D01*
X266507Y393122D01*
G37*
%LPD*%
%LPC*%
G36*
X353422Y617278D02*
X353422Y617278D01*
X359693Y617278D01*
X359627Y616944D01*
X358966Y615349D01*
X358007Y613913D01*
X356787Y612693D01*
X355351Y611734D01*
X353756Y611073D01*
X353422Y611007D01*
X353422Y617278D01*
G37*
%LPD*%
%LPC*%
G36*
X342707Y621722D02*
X342707Y621722D01*
X342773Y622056D01*
X343434Y623651D01*
X344393Y625087D01*
X345613Y626307D01*
X347049Y627266D01*
X348644Y627927D01*
X348978Y627993D01*
X348978Y621722D01*
X342707Y621722D01*
G37*
%LPD*%
%LPC*%
G36*
X272444Y382473D02*
X272444Y382473D01*
X270849Y383134D01*
X269413Y384093D01*
X268193Y385313D01*
X267234Y386749D01*
X266573Y388344D01*
X266507Y388678D01*
X272778Y388678D01*
X272778Y382407D01*
X272444Y382473D01*
G37*
%LPD*%
%LPC*%
G36*
X221644Y611073D02*
X221644Y611073D01*
X220049Y611734D01*
X218613Y612693D01*
X217393Y613913D01*
X216434Y615349D01*
X215773Y616944D01*
X215707Y617278D01*
X221978Y617278D01*
X221978Y611007D01*
X221644Y611073D01*
G37*
%LPD*%
%LPC*%
G36*
X348644Y611073D02*
X348644Y611073D01*
X347049Y611734D01*
X345613Y612693D01*
X344393Y613913D01*
X343434Y615349D01*
X342773Y616944D01*
X342707Y617278D01*
X348978Y617278D01*
X348978Y611007D01*
X348644Y611073D01*
G37*
%LPD*%
D10*
X71800Y365500D03*
X71800Y390900D03*
X97200Y365500D03*
X97200Y390900D03*
X122600Y365500D03*
X122600Y390900D03*
X148000Y365500D03*
X148000Y390900D03*
X173400Y365500D03*
X173400Y390900D03*
X198800Y365500D03*
X198800Y390900D03*
X224200Y365500D03*
X224200Y390900D03*
X249600Y365500D03*
X249600Y390900D03*
X275000Y365500D03*
X275000Y390900D03*
X300400Y365500D03*
X300400Y390900D03*
X325800Y365500D03*
X325800Y390900D03*
X351200Y365500D03*
X351200Y390900D03*
X376600Y365500D03*
X376600Y390900D03*
X402000Y365500D03*
X402000Y390900D03*
X427400Y365500D03*
X427400Y390900D03*
X452800Y365500D03*
X452800Y390900D03*
X478200Y365500D03*
X478200Y390900D03*
X503600Y365500D03*
X503600Y390900D03*
X71800Y619500D03*
X71800Y644900D03*
X97200Y619500D03*
X97200Y644900D03*
X122600Y619500D03*
X122600Y644900D03*
X148000Y619500D03*
X148000Y644900D03*
X173400Y619500D03*
X173400Y644900D03*
X198800Y619500D03*
X198800Y644900D03*
X224200Y619500D03*
X224200Y644900D03*
X249600Y619500D03*
X249600Y644900D03*
X275000Y619500D03*
X275000Y644900D03*
X300400Y619500D03*
X300400Y644900D03*
X325800Y619500D03*
X325800Y644900D03*
X351200Y619500D03*
X351200Y644900D03*
X376600Y619500D03*
X376600Y644900D03*
X402000Y619500D03*
X402000Y644900D03*
X427400Y619500D03*
X427400Y644900D03*
X452800Y619500D03*
X452800Y644900D03*
X478200Y619500D03*
X478200Y644900D03*
X503600Y619500D03*
X503600Y644900D03*
D11*
X231140Y279400D03*
X256540Y279400D03*
X281940Y279400D03*
X307340Y279400D03*
D12*
X614600Y436800D03*
X664600Y436800D03*
D13*
X724300Y114300D03*
X749300Y114300D03*
X774300Y114300D03*
D14*
X659400Y113900D03*
X659400Y63900D03*
X534400Y63900D03*
X534400Y113900D03*
D10*
X596900Y622300D03*
X596900Y596900D03*
X596900Y571500D03*
D14*
X659400Y279000D03*
X659400Y229000D03*
X534400Y229000D03*
X534400Y279000D03*
D15*
X723900Y248920D03*
M02*
