G04 EAGLE Gerber RS-274X export*
G75*
%MOMM*%
%FSLAX34Y34*%
%LPD*%
%IN*%
%IPPOS*%
%AMOC8*
5,1,8,0,0,1.08239X$1,22.5*%
G01*
%ADD10C,0.254000*%


D10*
X0Y0D02*
X825300Y0D01*
X825300Y707900D01*
X0Y707900D01*
X0Y0D01*
X58260Y50363D02*
X58184Y49494D01*
X58032Y48634D01*
X57806Y47790D01*
X57508Y46970D01*
X57139Y46178D01*
X56702Y45422D01*
X56201Y44707D01*
X55640Y44038D01*
X55022Y43420D01*
X54353Y42859D01*
X53638Y42358D01*
X52882Y41921D01*
X52090Y41552D01*
X51270Y41254D01*
X50426Y41028D01*
X49567Y40876D01*
X48697Y40800D01*
X47823Y40800D01*
X46954Y40876D01*
X46094Y41028D01*
X45250Y41254D01*
X44430Y41552D01*
X43638Y41921D01*
X42882Y42358D01*
X42167Y42859D01*
X41498Y43420D01*
X40880Y44038D01*
X40319Y44707D01*
X39818Y45422D01*
X39381Y46178D01*
X39012Y46970D01*
X38714Y47790D01*
X38488Y48634D01*
X38336Y49494D01*
X38260Y50363D01*
X38260Y51237D01*
X38336Y52107D01*
X38488Y52966D01*
X38714Y53810D01*
X39012Y54630D01*
X39381Y55422D01*
X39818Y56178D01*
X40319Y56893D01*
X40880Y57562D01*
X41498Y58180D01*
X42167Y58741D01*
X42882Y59242D01*
X43638Y59679D01*
X44430Y60048D01*
X45250Y60346D01*
X46094Y60572D01*
X46954Y60724D01*
X47823Y60800D01*
X48697Y60800D01*
X49567Y60724D01*
X50426Y60572D01*
X51270Y60346D01*
X52090Y60048D01*
X52882Y59679D01*
X53638Y59242D01*
X54353Y58741D01*
X55022Y58180D01*
X55640Y57562D01*
X56201Y56893D01*
X56702Y56178D01*
X57139Y55422D01*
X57508Y54630D01*
X57806Y53810D01*
X58032Y52966D01*
X58184Y52107D01*
X58260Y51237D01*
X58260Y50363D01*
X495140Y50363D02*
X495064Y49494D01*
X494912Y48634D01*
X494686Y47790D01*
X494388Y46970D01*
X494019Y46178D01*
X493582Y45422D01*
X493081Y44707D01*
X492520Y44038D01*
X491902Y43420D01*
X491233Y42859D01*
X490518Y42358D01*
X489762Y41921D01*
X488970Y41552D01*
X488150Y41254D01*
X487306Y41028D01*
X486447Y40876D01*
X485577Y40800D01*
X484703Y40800D01*
X483834Y40876D01*
X482974Y41028D01*
X482130Y41254D01*
X481310Y41552D01*
X480518Y41921D01*
X479762Y42358D01*
X479047Y42859D01*
X478378Y43420D01*
X477760Y44038D01*
X477199Y44707D01*
X476698Y45422D01*
X476261Y46178D01*
X475892Y46970D01*
X475594Y47790D01*
X475368Y48634D01*
X475216Y49494D01*
X475140Y50363D01*
X475140Y51237D01*
X475216Y52107D01*
X475368Y52966D01*
X475594Y53810D01*
X475892Y54630D01*
X476261Y55422D01*
X476698Y56178D01*
X477199Y56893D01*
X477760Y57562D01*
X478378Y58180D01*
X479047Y58741D01*
X479762Y59242D01*
X480518Y59679D01*
X481310Y60048D01*
X482130Y60346D01*
X482974Y60572D01*
X483834Y60724D01*
X484703Y60800D01*
X485577Y60800D01*
X486447Y60724D01*
X487306Y60572D01*
X488150Y60346D01*
X488970Y60048D01*
X489762Y59679D01*
X490518Y59242D01*
X491233Y58741D01*
X491902Y58180D01*
X492520Y57562D01*
X493081Y56893D01*
X493582Y56178D01*
X494019Y55422D01*
X494388Y54630D01*
X494686Y53810D01*
X494912Y52966D01*
X495064Y52107D01*
X495140Y51237D01*
X495140Y50363D01*
X58260Y278963D02*
X58184Y278094D01*
X58032Y277234D01*
X57806Y276390D01*
X57508Y275570D01*
X57139Y274778D01*
X56702Y274022D01*
X56201Y273307D01*
X55640Y272638D01*
X55022Y272020D01*
X54353Y271459D01*
X53638Y270958D01*
X52882Y270521D01*
X52090Y270152D01*
X51270Y269854D01*
X50426Y269628D01*
X49567Y269476D01*
X48697Y269400D01*
X47823Y269400D01*
X46954Y269476D01*
X46094Y269628D01*
X45250Y269854D01*
X44430Y270152D01*
X43638Y270521D01*
X42882Y270958D01*
X42167Y271459D01*
X41498Y272020D01*
X40880Y272638D01*
X40319Y273307D01*
X39818Y274022D01*
X39381Y274778D01*
X39012Y275570D01*
X38714Y276390D01*
X38488Y277234D01*
X38336Y278094D01*
X38260Y278963D01*
X38260Y279837D01*
X38336Y280707D01*
X38488Y281566D01*
X38714Y282410D01*
X39012Y283230D01*
X39381Y284022D01*
X39818Y284778D01*
X40319Y285493D01*
X40880Y286162D01*
X41498Y286780D01*
X42167Y287341D01*
X42882Y287842D01*
X43638Y288279D01*
X44430Y288648D01*
X45250Y288946D01*
X46094Y289172D01*
X46954Y289324D01*
X47823Y289400D01*
X48697Y289400D01*
X49567Y289324D01*
X50426Y289172D01*
X51270Y288946D01*
X52090Y288648D01*
X52882Y288279D01*
X53638Y287842D01*
X54353Y287341D01*
X55022Y286780D01*
X55640Y286162D01*
X56201Y285493D01*
X56702Y284778D01*
X57139Y284022D01*
X57508Y283230D01*
X57806Y282410D01*
X58032Y281566D01*
X58184Y280707D01*
X58260Y279837D01*
X58260Y278963D01*
X495140Y278963D02*
X495064Y278094D01*
X494912Y277234D01*
X494686Y276390D01*
X494388Y275570D01*
X494019Y274778D01*
X493582Y274022D01*
X493081Y273307D01*
X492520Y272638D01*
X491902Y272020D01*
X491233Y271459D01*
X490518Y270958D01*
X489762Y270521D01*
X488970Y270152D01*
X488150Y269854D01*
X487306Y269628D01*
X486447Y269476D01*
X485577Y269400D01*
X484703Y269400D01*
X483834Y269476D01*
X482974Y269628D01*
X482130Y269854D01*
X481310Y270152D01*
X480518Y270521D01*
X479762Y270958D01*
X479047Y271459D01*
X478378Y272020D01*
X477760Y272638D01*
X477199Y273307D01*
X476698Y274022D01*
X476261Y274778D01*
X475892Y275570D01*
X475594Y276390D01*
X475368Y277234D01*
X475216Y278094D01*
X475140Y278963D01*
X475140Y279837D01*
X475216Y280707D01*
X475368Y281566D01*
X475594Y282410D01*
X475892Y283230D01*
X476261Y284022D01*
X476698Y284778D01*
X477199Y285493D01*
X477760Y286162D01*
X478378Y286780D01*
X479047Y287341D01*
X479762Y287842D01*
X480518Y288279D01*
X481310Y288648D01*
X482130Y288946D01*
X482974Y289172D01*
X483834Y289324D01*
X484703Y289400D01*
X485577Y289400D01*
X486447Y289324D01*
X487306Y289172D01*
X488150Y288946D01*
X488970Y288648D01*
X489762Y288279D01*
X490518Y287842D01*
X491233Y287341D01*
X491902Y286780D01*
X492520Y286162D01*
X493081Y285493D01*
X493582Y284778D01*
X494019Y284022D01*
X494388Y283230D01*
X494686Y282410D01*
X494912Y281566D01*
X495064Y280707D01*
X495140Y279837D01*
X495140Y278963D01*
X711800Y183809D02*
X711723Y182830D01*
X711569Y181860D01*
X711340Y180904D01*
X711036Y179970D01*
X710661Y179063D01*
X710215Y178188D01*
X709701Y177350D01*
X709124Y176555D01*
X708486Y175808D01*
X707792Y175114D01*
X707045Y174476D01*
X706250Y173899D01*
X705412Y173385D01*
X704537Y172939D01*
X703630Y172564D01*
X702696Y172260D01*
X701741Y172031D01*
X700770Y171877D01*
X699791Y171800D01*
X698809Y171800D01*
X697830Y171877D01*
X696860Y172031D01*
X695904Y172260D01*
X694970Y172564D01*
X694063Y172939D01*
X693188Y173385D01*
X692350Y173899D01*
X691555Y174476D01*
X690808Y175114D01*
X690114Y175808D01*
X689476Y176555D01*
X688899Y177350D01*
X688385Y178188D01*
X687939Y179063D01*
X687564Y179970D01*
X687260Y180904D01*
X687031Y181860D01*
X686877Y182830D01*
X686800Y183809D01*
X686800Y184791D01*
X686877Y185770D01*
X687031Y186741D01*
X687260Y187696D01*
X687564Y188630D01*
X687939Y189537D01*
X688385Y190412D01*
X688899Y191250D01*
X689476Y192045D01*
X690114Y192792D01*
X690808Y193486D01*
X691555Y194124D01*
X692350Y194701D01*
X693188Y195215D01*
X694063Y195661D01*
X694970Y196036D01*
X695904Y196340D01*
X696860Y196569D01*
X697830Y196723D01*
X698809Y196800D01*
X699791Y196800D01*
X700770Y196723D01*
X701741Y196569D01*
X702696Y196340D01*
X703630Y196036D01*
X704537Y195661D01*
X705412Y195215D01*
X706250Y194701D01*
X707045Y194124D01*
X707792Y193486D01*
X708486Y192792D01*
X709124Y192045D01*
X709701Y191250D01*
X710215Y190412D01*
X710661Y189537D01*
X711036Y188630D01*
X711340Y187696D01*
X711569Y186741D01*
X711723Y185770D01*
X711800Y184791D01*
X711800Y183809D01*
X811800Y183809D02*
X811723Y182830D01*
X811569Y181860D01*
X811340Y180904D01*
X811036Y179970D01*
X810661Y179063D01*
X810215Y178188D01*
X809701Y177350D01*
X809124Y176555D01*
X808486Y175808D01*
X807792Y175114D01*
X807045Y174476D01*
X806250Y173899D01*
X805412Y173385D01*
X804537Y172939D01*
X803630Y172564D01*
X802696Y172260D01*
X801741Y172031D01*
X800770Y171877D01*
X799791Y171800D01*
X798809Y171800D01*
X797830Y171877D01*
X796860Y172031D01*
X795904Y172260D01*
X794970Y172564D01*
X794063Y172939D01*
X793188Y173385D01*
X792350Y173899D01*
X791555Y174476D01*
X790808Y175114D01*
X790114Y175808D01*
X789476Y176555D01*
X788899Y177350D01*
X788385Y178188D01*
X787939Y179063D01*
X787564Y179970D01*
X787260Y180904D01*
X787031Y181860D01*
X786877Y182830D01*
X786800Y183809D01*
X786800Y184791D01*
X786877Y185770D01*
X787031Y186741D01*
X787260Y187696D01*
X787564Y188630D01*
X787939Y189537D01*
X788385Y190412D01*
X788899Y191250D01*
X789476Y192045D01*
X790114Y192792D01*
X790808Y193486D01*
X791555Y194124D01*
X792350Y194701D01*
X793188Y195215D01*
X794063Y195661D01*
X794970Y196036D01*
X795904Y196340D01*
X796860Y196569D01*
X797830Y196723D01*
X798809Y196800D01*
X799791Y196800D01*
X800770Y196723D01*
X801741Y196569D01*
X802696Y196340D01*
X803630Y196036D01*
X804537Y195661D01*
X805412Y195215D01*
X806250Y194701D01*
X807045Y194124D01*
X807792Y193486D01*
X808486Y192792D01*
X809124Y192045D01*
X809701Y191250D01*
X810215Y190412D01*
X810661Y189537D01*
X811036Y188630D01*
X811340Y187696D01*
X811569Y186741D01*
X811723Y185770D01*
X811800Y184791D01*
X811800Y183809D01*
M02*
