M48
;GenerationSoftware,Autodesk,EAGLE,9.6.2*%
;CreationDate,2020-12-16T23:27:50Z*%
FMAT,2
ICI,OFF
METRIC,TZ,000.000
T8C0.305
T7C0.600
T6C0.889
T5C1.000
T4C1.016
T3C1.400
T2C2.000
T1C2.500
%
G90
M71
T1
X69930Y18430
X79930Y18430
T2
X4826Y5080
X48514Y5080
X4826Y27940
X48514Y27940
T3
X53440Y27900
X65940Y11390
X65940Y6390
X53440Y6390
X53440Y11390
X65940Y27900
X65940Y22900
X53440Y22900
T4
X23114Y27940
X25654Y27940
X28194Y27940
X30734Y27940
T5
X74930Y11430
X72430Y11430
X77430Y11430
T6
X22420Y39090
X24960Y36550
X24960Y39090
X27500Y36550
X30040Y36550
X30040Y39090
X32580Y36550
X32580Y39090
X35120Y36550
X35120Y39090
X37660Y36550
X37660Y39090
X40200Y36550
X40200Y39090
X42740Y36550
X42740Y39090
X45280Y36550
X45280Y39090
X47820Y36550
X47820Y39090
X50360Y36550
X50360Y39090
X7180Y61950
X7180Y64490
X9720Y61950
X9720Y64490
X12260Y61950
X12260Y64490
X27500Y39090
X14800Y64490
X17340Y61950
X17340Y64490
X19880Y61950
X19880Y64490
X22420Y61950
X22420Y64490
X24960Y61950
X24960Y64490
X27500Y61950
X27500Y64490
X30040Y61950
X30040Y64490
X32580Y61950
X32580Y64490
X35120Y61950
X35120Y64490
X37660Y61950
X37660Y64490
X40200Y61950
X40200Y64490
X42740Y61950
X42740Y64490
X45280Y61950
X47820Y61950
X47820Y64490
X50360Y61950
X50360Y64490
X12260Y39090
X7180Y36550
X7180Y39090
X9720Y36550
X9720Y39090
X14800Y61950
X12260Y36550
X14800Y36550
X14800Y39090
X17340Y36550
X17340Y39090
X59690Y62230
X59690Y59690
X59690Y57150
X19880Y36550
X19880Y39090
X22420Y36550
X45280Y64490
T7
X66460Y43680
X61460Y43680
T8
X72390Y24892
M30